<svg id="Layer_1" data-name="Layer 1" xmlns="http://www.w3.org/2000/svg" xmlns:xlink="http://www.w3.org/1999/xlink" viewBox="0 0 238 32"><defs><style>.cls-1{fill:#fff;}.cls-2{isolation:isolate;}.cls-3{fill:#6f708b;}.cls-4{fill:#454560;}.cls-5{mask:url(#mask);}.cls-6{fill:#56e7ce;}.cls-7{mask:url(#mask-2-2);}</style><mask id="mask" x="5" y="2" width="12.98" height="6.81" maskUnits="userSpaceOnUse"><g id="mask-2"><polygon id="path-1" class="cls-1" points="5 8.81 5 2 17.98 2 17.98 8.81 5 8.81"/></g></mask><mask id="mask-2-2" x="83.02" y="7.02" width="7.85" height="18.89" maskUnits="userSpaceOnUse"><g id="mask-4"><polygon id="path-3" class="cls-1" points="90.87 7.02 90.87 25.92 83.02 25.92 83.02 7.02 90.87 7.02"/></g></mask></defs><title>EdCast Intergrations</title><g id="Page-1"><g id="Mobile"><g id="Group-2"><g id="INTEGRATIONS" class="cls-2"><g class="cls-2"><path class="cls-3" d="M101,26V11.72h1V26Z"/><path class="cls-3" d="M116.44,26h-1L107,13.32h-.08q.12,2.27.12,3.42V26h-1V11.72h1l8.44,12.66h.06c-.06-1.17-.09-2.29-.09-3.34V11.72h1Z"/><path class="cls-3" d="M124.21,26h-1V12.66h-4.64v-.94h10.28v.94h-4.63Z"/><path class="cls-3" d="M138.77,26H131V11.72h7.81v.92H132V18h6.42V19H132v6.12h6.81Z"/><path class="cls-3" d="M147.61,18.8h5.27v6.52a12,12,0,0,1-4.66.88A6.79,6.79,0,0,1,143,24.29a7.6,7.6,0,0,1-1.8-5.41,8.05,8.05,0,0,1,.89-3.86,6.29,6.29,0,0,1,2.56-2.6,7.69,7.69,0,0,1,3.82-.92,9.75,9.75,0,0,1,4.19.86l-.4.9a9,9,0,0,0-3.85-.86A5.87,5.87,0,0,0,144,14.14a6.52,6.52,0,0,0-1.66,4.7,6.71,6.71,0,0,0,1.57,4.85,6.16,6.16,0,0,0,4.62,1.63,9,9,0,0,0,3.35-.56v-5h-4.25Z"/><path class="cls-3" d="M157.46,19.78V26h-1V11.72h3.4a6.46,6.46,0,0,1,3.93,1,3.53,3.53,0,0,1,1.26,3,3.88,3.88,0,0,1-.75,2.42A4.23,4.23,0,0,1,162,19.5l3.88,6.5h-1.2L161,19.78Zm0-.86h2.72a4.31,4.31,0,0,0,2.8-.81,2.85,2.85,0,0,0,1-2.37,2.81,2.81,0,0,0-1-2.38,5.36,5.36,0,0,0-3.18-.74h-2.36Z"/><path class="cls-3" d="M175.22,21h-5.8l-2,5h-1.11l5.75-14.34h.63L178.33,26H177.2Zm-5.44-.9h5.11L173,14.92c-.17-.41-.36-1-.59-1.68a16.81,16.81,0,0,1-.58,1.7Z"/><path class="cls-3" d="M184.07,26h-1V12.66h-4.64v-.94h10.29v.94h-4.64Z"/><path class="cls-3" d="M190.83,26V11.72h1V26Z"/><path class="cls-3" d="M207.87,18.84a8,8,0,0,1-1.7,5.38,6.53,6.53,0,0,1-9.37,0,8,8,0,0,1-1.7-5.4,7.81,7.81,0,0,1,1.72-5.36,6.56,6.56,0,0,1,9.36,0A8,8,0,0,1,207.87,18.84Zm-11.68,0a7.29,7.29,0,0,0,1.36,4.74,5.47,5.47,0,0,0,7.87,0,7.32,7.32,0,0,0,1.36-4.76,7.23,7.23,0,0,0-1.36-4.73,4.79,4.79,0,0,0-3.92-1.65,4.84,4.84,0,0,0-3.93,1.66A7.2,7.2,0,0,0,196.19,18.84Z"/><path class="cls-3" d="M221.53,26h-1l-8.45-12.68H212q.12,2.27.12,3.42V26h-1V11.72h1l8.45,12.66h.06c-.06-1.17-.09-2.29-.09-3.34V11.72h1Z"/><path class="cls-3" d="M233.45,22.32a3.41,3.41,0,0,1-1.31,2.83,5.44,5.44,0,0,1-3.49,1.05,11.06,11.06,0,0,1-4-.58v-1a10.09,10.09,0,0,0,3.94.66,4.41,4.41,0,0,0,2.79-.81,2.57,2.57,0,0,0,1-2.11,2.46,2.46,0,0,0-.34-1.35,3.23,3.23,0,0,0-1.12-1,13.31,13.31,0,0,0-2.26-.94,7.82,7.82,0,0,1-3-1.63,3.22,3.22,0,0,1-.84-2.33,3.18,3.18,0,0,1,1.26-2.61,4.92,4.92,0,0,1,3.22-1,9.42,9.42,0,0,1,3.78.76l-.36.86a8.71,8.71,0,0,0-3.4-.74,4,4,0,0,0-2.52.73,2.4,2.4,0,0,0-.93,2,2.64,2.64,0,0,0,.28,1.3,2.69,2.69,0,0,0,1,.91,12.11,12.11,0,0,0,2.24,1,12.32,12.32,0,0,1,2.51,1.12,3.61,3.61,0,0,1,1.23,1.23A3.46,3.46,0,0,1,233.45,22.32Z"/></g></g></g><g id="Page-1-2" data-name="Page-1"><path id="Fill-1" class="cls-4" d="M51,22.34a4.7,4.7,0,0,1-1.45,1,4.45,4.45,0,0,1-4.92-1,4.59,4.59,0,0,1-1-1.47A4.47,4.47,0,0,1,43.33,19a4.51,4.51,0,0,1,6.24-4.29,5.43,5.43,0,0,1,1.44.91,1.12,1.12,0,0,0,1.58,0,1,1,0,0,0,.35-.77,1.43,1.43,0,0,0-.41-.86,4.52,4.52,0,0,0-1-.92,7.24,7.24,0,0,0-1.55-.8A5.82,5.82,0,0,0,47.89,12h0a7.47,7.47,0,0,0-2.73.62A7.15,7.15,0,0,0,43,14.13a6.91,6.91,0,0,0-1.45,2.2A7.18,7.18,0,0,0,41,19a7,7,0,0,0,.54,2.78A6.76,6.76,0,0,0,43,24a7.07,7.07,0,0,0,2.16,1.45,7.26,7.26,0,0,0,4.83.2,6.61,6.61,0,0,0,1.6-.76,3.81,3.81,0,0,0,1-.92,1.53,1.53,0,0,0,.38-.85,1.11,1.11,0,0,0-.37-.84,1.15,1.15,0,0,0-1.61,0"/><path id="Fill-3" class="cls-4" d="M67.62,19a5.17,5.17,0,0,1-.43,1.83,4.68,4.68,0,0,1-1,1.46A4.59,4.59,0,0,1,58.38,19a4.68,4.68,0,0,1,.35-1.79A4.62,4.62,0,0,1,63,14.39a4.79,4.79,0,0,1,1.81.36,4.69,4.69,0,0,1,1.48,1,4.58,4.58,0,0,1,1,1.48A4.51,4.51,0,0,1,67.62,19m.29-4.93a7.44,7.44,0,0,0-2.21-1.52A7,7,0,0,0,58,14.05a7,7,0,0,0-2,5,6.82,6.82,0,0,0,.55,2.77A6.64,6.64,0,0,0,58.06,24a7,7,0,0,0,4.92,2,5.89,5.89,0,0,0,2.94-.77A8.87,8.87,0,0,0,67.62,24v.87a1.16,1.16,0,0,0,.35.84,1.21,1.21,0,0,0,1.68,0,1.16,1.16,0,0,0,.35-.84V19a6.6,6.6,0,0,0-.57-2.72,7.09,7.09,0,0,0-1.52-2.21"/><g id="Group-7"><g class="cls-5"><path id="Fill-5" class="cls-6" d="M6.22,8.81a1.26,1.26,0,0,1-.87-.34,1.11,1.11,0,0,1,0-1.63A18.14,18.14,0,0,1,16.68,2,1.22,1.22,0,0,1,18,3.08a1.18,1.18,0,0,1-1.14,1.23A15.57,15.57,0,0,0,7.08,8.48a1.27,1.27,0,0,1-.86.33"/></g></g><path id="Fill-8" class="cls-6" d="M9.25,12a1.38,1.38,0,0,1-.89-.31.93.93,0,0,1,0-1.48A14.75,14.75,0,0,1,16.64,7,1.22,1.22,0,0,1,18,8a1.12,1.12,0,0,1-1.14,1.13,12,12,0,0,0-6.73,2.61,1.38,1.38,0,0,1-.88.3"/><path id="Fill-10" class="cls-3" d="M36.62,18.75a4.73,4.73,0,0,1-.36,1.85,4.92,4.92,0,0,1-1,1.53,4.76,4.76,0,0,1-1.47,1,4.52,4.52,0,0,1-3.59,0,4.7,4.7,0,0,1-2.47-2.56,4.73,4.73,0,0,1-.36-1.85,4.87,4.87,0,0,1,.36-1.87,4.74,4.74,0,0,1,1-1.54,4.8,4.8,0,0,1,1.48-1,4.43,4.43,0,0,1,1.8-.37A4.41,4.41,0,0,1,35.2,15.3a5,5,0,0,1,1,1.52,5.84,5.84,0,0,1,.42,1.93m2-11.39a1.16,1.16,0,0,0-1.68,0,1.22,1.22,0,0,0-.35.87v5.33a10.23,10.23,0,0,0-1.68-1.26,6.19,6.19,0,0,0-3-.86A6.26,6.26,0,0,0,29.3,12a7.41,7.41,0,0,0-2.21,1.57,7.54,7.54,0,0,0-1.52,2.31A7.17,7.17,0,0,0,25,18.75a7.27,7.27,0,0,0,.55,2.79A7.74,7.74,0,0,0,27,23.83a6.84,6.84,0,0,0,7.67,1.6,6.88,6.88,0,0,0,1.91-1.21v.55a1.22,1.22,0,0,0,.35.87,1.12,1.12,0,0,0,.84.36,1.1,1.1,0,0,0,.84-.36,1.22,1.22,0,0,0,.35-.87V8.23a1.22,1.22,0,0,0-.35-.87"/><path id="Fill-12" class="cls-3" d="M23.42,16.27a7.66,7.66,0,0,0-1.53-2.21,7.22,7.22,0,0,0-2.22-1.51A6.64,6.64,0,0,0,17,12h0a7.79,7.79,0,0,0-2.79.62A7,7,0,0,0,12,14.13a6.67,6.67,0,0,0-1.48,2.2A6.83,6.83,0,0,0,10,19a6.87,6.87,0,0,0,2.06,5A7,7,0,0,0,17,26a7.81,7.81,0,0,0,2.75-.45A5.47,5.47,0,0,0,21.92,24a1.21,1.21,0,0,0,0-1.68,1.21,1.21,0,0,0-1.68,0,4.69,4.69,0,0,1-1.48,1,4.61,4.61,0,0,1-3.39.05A4.52,4.52,0,0,1,14,22.54a4.45,4.45,0,0,1-1-1.22,1.63,1.63,0,0,1-.09-.19h0a4.61,4.61,0,0,1-.49-2.07,4.49,4.49,0,0,1,.32-1.65h0a5.88,5.88,0,0,1,.33-.72,4.26,4.26,0,0,1,1-1.19,5,5,0,0,1,1.37-.8,4.55,4.55,0,0,1,3.21,0,5,5,0,0,1,1.37.8,4.55,4.55,0,0,1,1,1.2,4.68,4.68,0,0,1,.47,1.1H15.56a1.19,1.19,0,0,0,0,2.37h7.25a1.26,1.26,0,0,0,.79-.29A1.1,1.1,0,0,0,24,19a6.54,6.54,0,0,0-.58-2.72"/><path id="Fill-14" class="cls-4" d="M76.91,26a6,6,0,0,1-5.58-3.19,1.17,1.17,0,0,1,2.13-1c.71,1.6,3.08,2.14,4.76,1.63,1.09-.33,1.57-.95,1.42-1.84-.23-1.34-1.19-1.59-3.5-1.85-2-.22-4.7-.53-5.1-3.45a3.56,3.56,0,0,1,2.5-3.91c2.41-.95,6.11-.38,7.89,2.19A1.16,1.16,0,1,1,79.52,16a4.64,4.64,0,0,0-5.13-1.35c-1.18.47-1.08,1.18-1,1.42.14,1,.81,1.2,3.06,1.45s5,.57,5.54,3.79c.35,2.07-.82,3.78-3,4.46a7.25,7.25,0,0,1-2,.28"/><g id="Group-18"><g class="cls-7"><path id="Fill-16" class="cls-4" d="M88.13,19.92V13.86h1.53a1.14,1.14,0,0,0,.85-.36,1.24,1.24,0,0,0,0-1.75,1.14,1.14,0,0,0-.85-.36H88.13V8.25a1.22,1.22,0,0,0-.35-.87,1.2,1.2,0,0,0-1.7,0,1.18,1.18,0,0,0-.35.87v3.14H84.22A1.21,1.21,0,0,0,83,12.62a1.22,1.22,0,0,0,.35.88,1.15,1.15,0,0,0,.86.36h1.52v6.06s0,.07,0,.11V22.3c0,2.23,1.24,3.62,3.24,3.62a1.21,1.21,0,0,0,0-2.41c-.41,0-.88,0-.88-1.21V20s0-.08,0-.12"/></g></g></g></g></g></svg>